<svg xmlns="http://www.w3.org/2000/svg" xmlns:xlink="http://www.w3.org/1999/xlink" width="140.469" height="148.68" viewBox="0 0 140.469 148.68">
  <defs>
    <linearGradient id="linear-gradient" x1="0.5" x2="0.84" y2="1" gradientUnits="objectBoundingBox">
      <stop offset="0" stop-color="#fccf31"/>
      <stop offset="1" stop-color="#ff781e"/>
    </linearGradient>
  </defs>
  <path id="Path_48" data-name="Path 48" d="M149.653,59.6a10.169,10.169,0,0,0-8.064-3.579H74.408l27.96-27.961a11.842,11.842,0,0,0,3.626-8.684,11.844,11.844,0,0,0-3.626-8.683L95.212,3.626a12.1,12.1,0,0,0-17.272,0L15.815,65.655a12.22,12.22,0,0,0-3.531,8.684,11.686,11.686,0,0,0,3.531,8.588l62.124,62.221a12.22,12.22,0,0,0,8.684,3.532,11.691,11.691,0,0,0,8.588-3.532l7.157-7.251a11.986,11.986,0,0,0,0-17.178L74.408,92.663h67.181a10.171,10.171,0,0,0,8.064-3.579,12.74,12.74,0,0,0,3.1-8.636V68.233A12.737,12.737,0,0,0,149.653,59.6Z" transform="translate(-12.284)" fill="url(#linear-gradient)"/>
</svg>
